<?xml version="1.0" encoding="UTF-8"?>
<svg width="50px" height="50px" viewBox="0 0 50 50" version="1.1" xmlns="http://www.w3.org/2000/svg" xmlns:xlink="http://www.w3.org/1999/xlink">
    <!-- Generator: Sketch 46.1 (44463) - http://www.bohemiancoding.com/sketch -->
    <title>Custom Preset Copy 3</title>
    <desc>Created with Sketch.</desc>
    <defs></defs>
    <g id="Page-1" stroke="none" stroke-width="1" fill="none" fill-rule="evenodd">
        <g id="Custom-Preset-Copy-3" fill="#5FB7B9">
            <g id="Group" transform="translate(1.000000, 1.000000)">
                <g id="T">
                    <path d="M21.3333333,0 L27.2592593,0 L27.2592593,19.1314439 L27.2592593,19.1314439 C27.2592593,19.959871 26.5876864,20.6314439 25.7592593,20.6314439 L22.8333333,20.6314439 L22.8333333,20.6314439 C22.0049062,20.6314439 21.3333333,19.959871 21.3333333,19.1314439 L21.3333333,0 Z" id="Rectangle-2"></path>
                    <path d="M42.0740741,0 L46.5,0 L46.5,-2.22044605e-16 C47.3284271,3.61566896e-16 48,0.671572875 48,1.5 L48,11.5750714 L48,11.5750714 C48,12.4034986 47.3284271,13.0750714 46.5,13.0750714 L43.5740741,13.0750714 L43.5740741,13.0750714 C42.7456469,13.0750714 42.0740741,12.4034986 42.0740741,11.5750714 L42.0740741,0 Z" id="Rectangle-2"></path>
                    <path d="M22.2407407,-20.2069286 L26.6666667,-20.2069286 L26.6666667,26.1501429 L20.7407407,26.1501429 L20.7407407,-18.7069286 L20.7407407,-18.7069286 C20.7407407,-19.5353557 21.4123136,-20.2069286 22.2407407,-20.2069286 Z" id="Rectangle-2" transform="translate(23.703704, 2.971607) rotate(90.000000) translate(-23.703704, -2.971607) "></path>
                    <path d="M1.5,0 L5.92592593,0 L5.92592593,11.5750714 L5.92592593,11.5750714 C5.92592593,12.4034986 5.25435305,13.0750714 4.42592593,13.0750714 L1.5,13.0750714 L1.5,13.0750714 C0.671572875,13.0750714 5.45542273e-16,12.4034986 4.4408921e-16,11.5750714 L4.4408921e-16,1.5 L4.4408921e-16,1.5 C3.42636147e-16,0.671572875 0.671572875,1.52179594e-16 1.5,0 Z" id="Rectangle-2"></path>
                </g>
                <g id="T" transform="translate(24.000000, 37.588235) scale(1, -1) translate(-24.000000, -37.588235) translate(0.000000, 27.176471)">
                    <path d="M21.3333333,0 L27.2592593,0 L27.2592593,19.1314439 L27.2592593,19.1314439 C27.2592593,19.959871 26.5876864,20.6314439 25.7592593,20.6314439 L22.8333333,20.6314439 L22.8333333,20.6314439 C22.0049062,20.6314439 21.3333333,19.959871 21.3333333,19.1314439 L21.3333333,0 Z" id="Rectangle-2"></path>
                    <path d="M42.0740741,0 L46.5,0 L46.5,0 C47.3284271,-1.52179594e-16 48,0.671572875 48,1.5 L48,11.5750714 L48,11.5750714 C48,12.4034986 47.3284271,13.0750714 46.5,13.0750714 L43.5740741,13.0750714 L43.5740741,13.0750714 C42.7456469,13.0750714 42.0740741,12.4034986 42.0740741,11.5750714 L42.0740741,0 Z" id="Rectangle-2"></path>
                    <path d="M22.8333333,-20.2069286 L27.2592593,-20.2069286 L27.2592593,26.1501429 L21.3333333,26.1501429 L21.3333333,-18.7069286 L21.3333333,-18.7069286 C21.3333333,-19.5353557 22.0049062,-20.2069286 22.8333333,-20.2069286 Z" id="Rectangle-2" transform="translate(24.296296, 2.971607) rotate(90.000000) translate(-24.296296, -2.971607) "></path>
                    <path d="M1.5,0 L5.92592593,0 L5.92592593,11.5750714 L5.92592593,11.5750714 C5.92592593,12.4034986 5.25435305,13.0750714 4.42592593,13.0750714 L1.5,13.0750714 L1.5,13.0750714 C0.671572875,13.0750714 3.23497668e-16,12.4034986 2.22044605e-16,11.5750714 L4.4408921e-16,1.5 L2.22044605e-16,1.5 C1.20591542e-16,0.671572875 0.671572875,-6.98650109e-17 1.5,-2.22044605e-16 Z" id="Rectangle-2"></path>
                </g>
            </g>
        </g>
    </g>
</svg>