<?xml version="1.0" encoding="utf-8"?>
<!-- Generator: Adobe Illustrator 19.0.0, SVG Export Plug-In . SVG Version: 6.00 Build 0)  -->
<svg version="1.1" id="Layer_1" xmlns="http://www.w3.org/2000/svg" xmlns:xlink="http://www.w3.org/1999/xlink" x="0px" y="0px"
	 viewBox="0 0 692 88.9" style="enable-background:new 0 0 692 88.9;" xml:space="preserve">
<g id="XMLID_82_">
	<path id="XMLID_83_" d="M18.8,30.9H5v-8h37.1v8H28.4v35.4h-9.6V30.9z"/>
	<path id="XMLID_85_" d="M82.3,47.7H62.2v18.5h-9.3V22.6h9.3v15.8h20.2V22.8h9.4v43.5h-9.4V47.7z"/>
	<path id="XMLID_87_" d="M139.6,48.9c0,11.8-6.9,17.5-18.6,17.5c-11.8,0-18.5-5.6-18.5-17.5l0-26h9.6l0,26c0,4.8,1.2,9.4,9,9.4
		c6.8,0,9-2.9,9-9.4l0-26h9.6L139.6,48.9z"/>
	<path id="XMLID_89_" d="M166.4,49.4l-16-26.6h10.8l10.2,17.2l10.1-17.2h10.7l-16.1,26.8v16.7h-9.6V49.4z"/>
	<path id="XMLID_91_" d="M235.6,47.9v4h-15.1v-4H235.6z"/>
	<path id="XMLID_93_" d="M296.7,47.7h-20.2v18.5h-9.3V22.6h9.3v15.8h20.2V22.8h9.4v43.5h-9.4V47.7z"/>
	<path id="XMLID_95_" d="M316.9,66.4l19.7-43.5h9.6l19.4,43.5h-9.3l-4.3-9.6h-22l-4.6,9.6H316.9z M341.6,31.1l-7.3,16.8h14.4
		L341.6,31.1L341.6,31.1z"/>
	<path id="XMLID_98_" d="M384.8,36.3v30.1h-8.3V22.8h11l19.4,27.2V22.8h8.1v43.7h-8.1L384.8,36.3z"/>
	<path id="XMLID_100_" d="M455.2,47.7h-20.2v18.5h-9.3V22.6h9.3v15.8h20.2V22.8h9.4v43.5h-9.4V47.7z"/>
	<path id="XMLID_102_" d="M507,30.9h-13.8v-8h37.1v8h-13.7v35.4H507V30.9z"/>
	<path id="XMLID_104_" d="M565.8,50.3L578,66.4h-11.7l-11-15.7h-4.7v15.7H541V22.9h19.6c11,0,15.2,6.9,15.2,14
		c0,5.9-3.1,11.9-10.4,13.5H565.8z M550.6,30.3v13.1h7.4c4.6,0,8.3-1,8.3-6.6c0-5.7-3.8-6.5-8.3-6.5H550.6z"/>
	<path id="XMLID_107_" d="M588.9,66.4l19.7-43.5h9.6l19.4,43.5h-9.3l-4.3-9.6h-22l-4.6,9.6H588.9z M613.6,31.1l-7.3,16.8h14.4
		L613.6,31.1L613.6,31.1z"/>
	<path id="XMLID_110_" d="M656.8,36.3v30.1h-8.3V22.8h11l19.4,27.2V22.8h8.1v43.7h-8.1L656.8,36.3z"/>
</g>
</svg>
